<svg xmlns="http://www.w3.org/2000/svg" width="250" height="250" version="1.0" viewBox="0 0 187.5 187.5"><defs><clipPath id="a"><path d="M0 105h78v37.887H0Zm0 0"/></clipPath><clipPath id="b"><path d="M178 125h9v10h-9Zm0 0"/></clipPath></defs><g clip-path="url(#a)"><path fill="#00618a" d="M.688 134.355h6.14v-24.257l9.504 21.156c1.121 2.55 2.66 3.465 5.668 3.465 3.012 0 4.488-.906 5.61-3.465l9.507-21.156v24.27h6.14v-24.231c0-2.364-.944-3.508-2.894-4.098-4.664-1.457-7.793-.195-9.21 2.957l-9.329 20.879-9.031-20.89c-1.36-3.15-4.547-4.41-9.211-2.954-1.95.59-2.894 1.735-2.894 4.098Zm47.671-19.75H54.5v13.372c-.059.726.23 2.43 3.594 2.484 1.718.027 13.246 0 13.351 0v-15.922h6.153c.027 0-.004 21.707-.004 21.8.035 5.356-6.637 6.516-9.711 6.61H48.496v-4.137h19.422c3.95-.421 3.484-2.386 3.484-3.046v-1.614h-13.05c-6.07-.054-9.938-2.707-9.985-5.757-.004-.274.13-13.66-.004-13.793Zm0 0"/></g><path fill="#e48e00" d="M82.332 134.355h17.652c2.067 0 4.075-.43 5.668-1.18 2.66-1.222 3.957-2.874 3.957-5.042v-4.492c0-1.774-1.476-3.426-4.367-4.532-1.535-.59-3.426-.906-5.254-.906h-7.441c-2.477 0-3.66-.746-3.953-2.402-.059-.196-.059-.364-.059-.551v-2.797c0-.156 0-.316.059-.512.293-1.261.945-1.617 3.129-1.82.175 0 .41-.043.59-.043h17.535v-4.094H92.609c-2.48 0-3.78.157-4.96.512-3.665 1.14-5.262 2.965-5.262 6.117v3.582c0 2.758 3.133 5.121 8.386 5.676.59.04 1.18.078 1.77.078h6.375c.238 0 .473 0 .652.04 1.946.156 2.774.511 3.364 1.218.363.367.472.711.472 1.094v3.586c0 .433-.293.984-.883 1.457-.53.472-1.418.789-2.601.867-.234 0-.41.039-.649.039H82.328v4.098Zm65.578-7.128c0 4.214 3.13 6.578 9.45 7.05q.885.072 1.769.078h16v-4.093h-16.117c-3.602 0-4.961-.907-4.961-3.075v-21.195h-6.14Zm-34.383.214v-14.605c0-3.711 2.602-5.965 7.75-6.672a11 11 0 0 1 1.657-.121h11.656q.86-.001 1.715.121c5.148.707 7.75 2.957 7.75 6.672v14.605c0 3.008-1.106 4.621-3.653 5.672l6.047 5.465h-7.129l-4.894-4.422-4.926.313h-6.566c-1.125 0-2.309-.16-3.61-.516-3.914-1.062-5.797-3.117-5.797-6.512m6.63-.367c0 .2.058.395.116.633.364 1.7 1.954 2.645 4.368 2.645h5.578l-5.121-4.63h7.129l4.457 4.04c.824-.442 1.367-1.114 1.546-1.973.06-.2.06-.394.06-.594v-14.004c0-.16 0-.363-.06-.554-.363-1.578-1.953-2.485-4.316-2.485h-9.258c-2.73 0-4.496 1.184-4.496 3.04v13.894Zm0 0"/><path fill="#00618a" d="M180.527 99.195c-3.773-.101-6.656.246-9.12 1.29-.704.296-1.817.3-1.934 1.18.386.405.445 1.007.75 1.503.59.953 1.586 2.23 2.468 2.902.97.73 1.97 1.512 3.008 2.149 1.848 1.129 3.91 1.77 5.688 2.898 1.047.668 2.09 1.504 3.113 2.258.504.371.844.95 1.5 1.18v-.106c-.344-.441-.434-1.047-.75-1.504l-1.395-1.398c-1.367-1.82-3.097-3.402-4.937-4.727-1.469-1.054-4.754-2.48-5.367-4.187l-.106-.11c1.04-.117 2.258-.496 3.22-.75 1.612-.433 3.058-.324 4.722-.753l2.254-.645v-.43c-.84-.863-1.442-2.007-2.36-2.793-2.402-2.047-5.027-4.093-7.726-5.8-1.496-.95-3.348-1.563-4.938-2.364-.535-.27-1.472-.41-1.824-.86-.832-1.065-1.29-2.413-1.93-3.644-1.347-2.597-2.672-5.433-3.863-8.164-.816-1.863-1.348-3.699-2.363-5.37-4.871-8.02-10.117-12.86-18.242-17.618-1.73-1.012-3.813-1.41-6.012-1.934l-3.543-.214c-.719-.301-1.469-1.184-2.149-1.614-2.691-1.703-9.593-5.402-11.59-.543-1.257 3.07 1.883 6.067 3.008 7.625.786 1.094 1.797 2.317 2.36 3.547.37.805.433 1.617.75 2.469.781 2.098 1.46 4.395 2.469 6.34.511.984 1.074 2.02 1.718 2.898.395.54 1.074.778 1.18 1.614-.664.93-.7 2.367-1.074 3.543-1.676 5.296-1.043 11.874 1.394 15.792.75 1.204 2.512 3.782 4.938 2.793 2.12-.867 1.636-3.543 2.254-5.906.136-.539.054-.93.324-1.289v.106l1.93 3.867c1.43 2.304 3.968 4.715 6.117 6.34 1.117.843 2.004 2.3 3.433 2.793v-.11h-.105c-.281-.437-.715-.613-1.074-.965-.84-.824-1.774-1.847-2.47-2.793-1.956-2.656-3.683-5.562-5.257-8.593-.754-1.446-1.406-3.04-2.039-4.512-.242-.566-.242-1.422-.75-1.719-.695 1.078-1.719 1.95-2.254 3.223-.86 2.035-.973 4.515-1.289 7.09-.187.07-.105.023-.215.11-1.492-.36-2.02-1.903-2.574-3.224-1.406-3.343-1.664-8.722-.43-12.57.317-.992 1.766-4.129 1.18-5.047-.277-.918-1.2-1.457-1.719-2.148-.636-.867-1.273-2.008-1.715-3.008-1.152-2.606-1.687-5.531-2.898-8.164-.578-1.262-1.555-2.535-2.36-3.645-.89-1.238-1.886-2.152-2.578-3.644-.242-.531-.578-1.383-.214-1.934q.117-.527.644-.644c.625-.48 2.36.16 3.008.43 1.719.714 3.156 1.398 4.613 2.363.703.457 1.41 1.363 2.254 1.613h.965c1.512.348 3.203.11 4.613.539 2.496.758 4.73 1.938 6.762 3.223 6.188 3.906 11.242 9.472 14.703 16.12.559 1.067.797 2.09 1.29 3.223.987 2.278 2.234 4.637 3.218 6.875.984 2.23 1.937 4.48 3.328 6.336.73.977 3.547 1.5 4.828 2.04.899.382 2.371.777 3.219 1.288 1.625.985 3.2 2.153 4.723 3.227.761.535 3.105 1.715 3.222 2.684Zm0 0"/><path fill="#00618a" fill-rule="evenodd" d="M132.559 58.27c-.786-.016-1.344.085-1.93.214v.106h.105c.375.773 1.04 1.27 1.504 1.933l1.075 2.258.105-.11c.664-.468.969-1.218.965-2.362-.266-.282-.305-.633-.535-.97-.309-.444-.91-.698-1.29-1.073Zm0 0"/><g clip-path="url(#b)"><path fill="#e48e00" fill-rule="evenodd" d="M178.016 130.145c0 2.703 2.136 4.527 4.523 4.527 2.39 0 4.527-1.824 4.527-4.527 0-2.708-2.136-4.532-4.527-4.532-2.387 0-4.523 1.825-4.523 4.532m8.035 0c0 2.05-1.567 3.585-3.512 3.585-1.965 0-3.512-1.535-3.512-3.585 0-2.055 1.543-3.59 3.512-3.59 1.941 0 3.512 1.535 3.512 3.59m-2.293 2.582h1.012l-1.48-2.27c.792-.082 1.398-.469 1.398-1.41 0-1.055-.665-1.488-1.942-1.488h-2.016v5.171h.868v-2.234h.808l1.352 2.234Zm-2.16-2.957v-1.485h1c.52 0 1.148.094 1.148.7 0 .726-.566.785-1.219.785Zm0 0"/></g></svg>