<svg xmlns="http://www.w3.org/2000/svg" width="250" height="250" version="1.0" viewBox="0 0 187.5 187.5"><defs><clipPath id="a"><path d="M166 165h11v11.887h-11Zm0 0"/></clipPath><clipPath id="b"><path d="M116 159.684h48v17.203h-48Zm0 0"/></clipPath><clipPath id="c"><path d="M128 165h32v11.887h-32Zm0 0"/></clipPath><clipPath id="d"><path d="M17.773 2.027h151.094V172.57H17.773Zm0 0"/></clipPath></defs><g clip-path="url(#a)"><path fill="#83cd29" d="M171.852 165.773a.85.85 0 0 0-.418.102l-4.02 2.328a.84.84 0 0 0-.418.734v4.645c0 .3.156.586.418.734l1.047.61c.512.25.7.246.934.246.753 0 1.183-.457 1.183-1.258v-4.582a.114.114 0 0 0-.117-.113h-.504c-.066 0-.121.05-.121.113v4.586c0 .352-.367.707-.965.41l-1.09-.64c-.039-.024-.07-.063-.07-.106v-4.644c0-.043.031-.09.07-.11l4.012-2.32a.13.13 0 0 1 .117 0l4.012 2.32c.039.024.07.067.07.11v4.644c0 .047-.023.09-.058.113l-4.024 2.317a.11.11 0 0 1-.117 0l-1.031-.614a.1.1 0 0 0-.106 0c-.285.16-.336.18-.605.274-.067.023-.164.058.035.172l1.348.797c.129.074.273.109.418.109q.223.001.418-.11l4.02-2.32a.85.85 0 0 0 .42-.734v-4.645a.85.85 0 0 0-.42-.738l-4.02-2.328a.85.85 0 0 0-.418-.102m1.074 3.317c-1.145 0-1.824.488-1.824 1.3 0 .883.675 1.126 1.773 1.235 1.316.129 1.418.32 1.418.582 0 .45-.36.64-1.203.64-1.063 0-1.297-.265-1.375-.796a.113.113 0 0 0-.11-.102h-.523q-.116 0-.121.117c0 .68.371 1.48 2.125 1.48 1.273 0 2.008-.5 2.008-1.374 0-.871-.594-1.106-1.828-1.27-1.246-.164-1.364-.246-1.364-.539 0-.238.102-.562 1.024-.562.824 0 1.129.176 1.254.734.011.055.058.098.113.098h.52c.03 0 .062-.024.085-.043.024-.028.04-.055.036-.086-.082-.961-.72-1.414-2.008-1.414m0 0"/></g><g clip-path="url(#b)"><path fill="#404137" d="M148.215 159.684a.24.24 0 0 0-.125.035.23.23 0 0 0-.13.219v6.546a.17.17 0 0 1-.085.153.17.17 0 0 1-.18 0l-1.066-.614a.47.47 0 0 0-.512 0l-4.258 2.461a.53.53 0 0 0-.257.453v4.93q0 .293.257.446l4.258 2.46q.256.153.512 0l4.258-2.46a.49.49 0 0 0 .258-.446v-12.285a.52.52 0 0 0-.266-.453l-2.535-1.422c-.04-.023-.082-.027-.13-.023m-27.399 6.148a.5.5 0 0 0-.23.063l-4.258 2.46a.48.48 0 0 0-.254.446l.008 6.613c0 .094.047.18.129.223a.25.25 0 0 0 .254 0l2.527-1.453a.53.53 0 0 0 .266-.446v-3.09c0-.183.094-.351.254-.445l1.074-.621a.51.51 0 0 1 .516 0l1.074.621c.16.094.254.262.254.445v3.09c0 .184.11.352.265.446l2.528 1.453a.25.25 0 0 0 .254 0 .26.26 0 0 0 .128-.223l.008-6.613a.47.47 0 0 0-.254-.446l-4.261-2.46a.5.5 0 0 0-.23-.063Zm38.274.063q-.135-.001-.258.066l-4.258 2.465a.51.51 0 0 0-.254.445v4.926a.51.51 0 0 0 .262.445l4.227 2.414c.156.09.347.098.504.008l2.558-1.43a.25.25 0 0 0 .137-.222.25.25 0 0 0-.13-.219l-4.284-2.465a.28.28 0 0 1-.133-.23v-1.543c0-.09.055-.176.133-.223l1.332-.77a.25.25 0 0 1 .258 0l1.336.77a.24.24 0 0 1 .125.223v1.215q0 .145.128.222a.25.25 0 0 0 .258 0l2.551-1.488a.52.52 0 0 0 .258-.445v-1.188a.48.48 0 0 0-.258-.445l-4.234-2.465a.5.5 0 0 0-.254-.066Zm-12.735 3.675q.037.001.067.02l1.46.847c.04.02.071.063.071.11v1.695c0 .043-.031.086-.07.11l-1.461.847a.12.12 0 0 1-.125 0l-1.461-.847c-.04-.024-.07-.067-.07-.11v-1.695c0-.047.03-.086.07-.11l1.46-.847a.1.1 0 0 1 .06-.016Zm0 0"/></g><g clip-path="url(#c)"><path fill="#83cd29" d="M133.613 165.867a.5.5 0 0 0-.258.07l-4.257 2.454a.53.53 0 0 0-.258.453v4.93q0 .293.258.44l4.257 2.466c.172.101.34.101.512 0l4.262-2.465a.48.48 0 0 0 .254-.442v-4.93a.53.53 0 0 0-.258-.452l-4.258-2.453a.5.5 0 0 0-.254-.07m25.469 4.399q-.026-.002-.05.007l-.821.48a.085.085 0 0 0-.05.083v.941c0 .036.019.07.05.086l.82.473q.047.03.094 0l.82-.473a.1.1 0 0 0 .051-.086v-.941a.1.1 0 0 0-.05-.082l-.821-.48c-.016-.008-.027-.008-.043-.008m0 0"/></g><g clip-path="url(#d)"><path fill="#539e43" d="M93.32 172.547c-2.343 0-4.523-.625-6.55-1.715l-20.743-12.34c-3.117-1.715-1.558-2.34-.62-2.652 4.21-1.406 4.988-1.719 9.355-4.219.468-.312 1.093-.152 1.558.16l15.907 9.524c.62.312 1.406.312 1.875 0l62.218-36.07c.625-.313.938-.938.938-1.723V51.516c0-.782-.313-1.403-.938-1.715L94.102 13.879c-.622-.313-1.407-.313-1.875 0L30.007 49.8c-.624.312-.937 1.09-.937 1.715v71.996c0 .625.313 1.41.934 1.722l17 9.836c9.2 4.684 14.969-.78 14.969-6.25V57.762c0-.934.78-1.871 1.875-1.871H71.8c.933 0 1.87.78 1.87 1.875v71.058c0 12.34-6.706 19.524-18.401 19.524-3.59 0-6.395 0-14.348-3.91l-16.375-9.368c-4.055-2.34-6.55-6.715-6.55-11.398V51.676c0-4.688 2.495-9.059 6.55-11.403L86.77 4.2c3.898-2.187 9.203-2.187 13.101 0l62.223 36.074c4.054 2.344 6.55 6.715 6.55 11.403v71.992c0 4.687-2.496 9.059-6.55 11.398L99.87 171.145c-2.027.937-4.367 1.402-6.55 1.402m19.184-49.5c-27.293 0-32.906-12.5-32.906-23.117 0-.938.777-1.875 1.87-1.875h8.11c.934 0 1.711.625 1.711 1.562 1.25 8.278 4.84 12.34 21.367 12.34 13.102 0 18.715-2.973 18.715-9.996 0-4.059-1.559-7.031-21.984-9.059-17.004-1.718-27.606-5.468-27.606-19.05 0-12.653 10.602-20.149 28.383-20.149 19.957 0 29.785 6.871 31.035 21.863 0 .473-.16.938-.472 1.407-.313.312-.778.625-1.247.625h-8.109c-.777 0-1.559-.625-1.715-1.407-1.87-8.586-6.707-11.398-19.492-11.398-14.348 0-16.062 4.996-16.062 8.746 0 4.527 2.027 5.934 21.363 8.434 19.183 2.496 28.226 6.086 28.226 19.515-.156 13.742-11.386 21.559-31.187 21.559m0 0"/></g></svg>